<svg width="88" height="54" viewBox="0 0 88 54" fill="none" xmlns="http://www.w3.org/2000/svg">
<path d="M81.3244 2.42849C80.6145 1.97526 78.8341 1.39031 77.3965 1.13775C76.3074 0.94648 73.7493 0.801762 73.1834 0.899439C73.0143 0.928656 72.4885 1.01309 72.0151 1.08712C69.9846 1.40479 67.7943 2.53137 66.6277 3.85801C65.4677 5.17735 64.8198 6.8666 64.8223 8.56514C64.825 10.4507 65.5435 12.1864 66.8882 13.5558C67.8975 14.5837 69.2494 15.316 71.4616 16.033C72.3071 16.3071 73.7041 16.758 74.5659 17.0349C76.583 17.6831 77.4564 18.1334 78.0798 18.8465C79.399 20.355 78.8457 22.6044 76.9085 23.6084C74.6845 24.761 70.2444 24.5215 66.7362 23.0596C64.7856 22.2467 64.4136 22.4848 64.4814 24.5035C64.5279 25.8897 64.6719 26.1803 65.577 26.7157C67.4645 27.832 71.0545 28.5363 74.155 28.3984C77.4362 28.2524 79.8295 27.3183 81.5555 25.5094C83.0665 23.926 83.6548 22.4873 83.6742 20.3286C83.689 18.6874 83.415 17.6976 82.5909 16.4153C81.5196 14.7481 80.2905 14.0461 75.913 12.6014C71.4629 11.1325 70.5262 10.6331 69.9736 9.43421C69.4423 8.28163 69.8528 6.645 70.8568 5.91284C72.6206 4.62656 77.3023 4.6611 80.191 5.98168C80.5617 6.15128 81.0936 6.32151 81.373 6.36001C82.1248 6.46375 82.2838 6.17319 82.2838 4.69613C82.2838 3.304 82.1313 2.94363 81.3244 2.42849Z" fill="white"/>
<path d="M32.5596 2.47975C32.4606 2.28712 32.2596 2.0202 32.113 1.88662C31.8773 1.6717 31.6242 1.63852 29.9176 1.59903C28.2808 1.56103 27.9468 1.58479 27.712 1.75626C27.3118 2.04855 27.3531 2.72128 27.8758 4.42031C28.1167 5.20334 28.3596 6.01114 28.4154 6.21541C28.5364 6.657 29.4111 9.56593 30.6304 13.5815C31.1162 15.1816 31.559 16.6579 31.6142 16.8622C31.6696 17.0665 31.9971 18.1668 32.3421 19.3073C32.6871 20.4477 33.2506 22.3141 33.5944 23.4546C33.9382 24.595 34.3029 25.8024 34.4049 26.1376C34.8291 27.5327 35.147 27.6947 37.4581 27.6947C39.2804 27.6947 39.8159 27.5652 40.1562 27.0425C40.3425 26.7562 40.6391 25.612 41.8161 20.6381C42.0979 19.4465 42.4678 17.8867 42.6379 17.1717C44.1895 10.6509 44.4991 9.33356 44.5871 8.87711C44.7185 8.19609 44.7841 8.01051 44.8941 8.01051C44.9503 8.01051 45.1732 8.77658 45.3896 9.71276C45.6058 10.6491 45.995 12.2785 46.2543 13.3339C46.7139 15.2043 46.8723 15.8643 47.7842 19.7096C48.0265 20.731 48.2781 21.7616 48.3435 21.9999C48.4088 22.2382 48.6826 23.3659 48.9518 24.506C49.221 25.6461 49.5295 26.7507 49.6375 26.9608C49.9494 27.568 50.4319 27.6948 52.4268 27.6942C53.9518 27.6939 54.235 27.6619 54.5768 27.4521C55.1407 27.1061 55.1944 26.9728 56.5265 22.6189C56.6827 22.1082 57.1419 20.6319 57.5469 19.3382C57.9518 18.0445 58.4873 16.3175 58.7366 15.5004C58.986 14.6833 59.355 13.4856 59.5567 12.8387C59.7585 12.1919 59.9747 11.4955 60.0373 11.2912C60.1543 10.9094 60.8313 8.72831 61.4782 6.64871C62.7913 2.42862 62.814 2.32351 62.5001 1.93366C62.2645 1.64112 62.2191 1.63481 60.3677 1.63481C59.1642 1.63481 58.526 1.6049 58.1063 1.89199C57.5826 2.25025 57.3991 3.10219 56.882 5.12201C56.5713 6.33612 56.1792 7.85886 56.011 8.50571C55.3577 11.0171 53.7185 17.4206 52.9053 20.6381C52.7246 21.3531 52.5263 21.938 52.4645 21.938C52.4029 21.938 52.2252 21.3809 52.0698 20.7C51.9143 20.0191 51.5945 18.6542 51.3591 17.6669C50.8252 15.4289 49.7173 10.678 49.0059 7.57721C47.7991 2.31707 47.7552 2.17371 47.2463 1.83797C46.9941 1.67158 46.5919 1.63481 45.0266 1.63481C42.5916 1.63481 42.3514 1.76071 42.0048 3.21796C41.9205 3.5729 41.5668 5.08883 41.2189 6.58681C40.8708 8.08479 40.453 9.86751 40.2901 10.5484C40.1274 11.2293 39.8585 12.3714 39.6927 13.0863C39.5269 13.8013 39.1366 15.4726 38.8253 16.8003C38.5141 18.1281 38.1331 19.7715 37.9785 20.4524C37.824 21.1333 37.6452 21.6797 37.5812 21.6664C37.5171 21.6533 36.9291 19.5084 36.2745 16.9001C35.6199 14.2919 34.5567 10.059 33.912 7.49402C33.2671 4.92888 32.6586 2.67251 32.5596 2.47975Z" fill="white"/>
<path d="M87.0245 35.2583C86.8078 34.8365 85.9434 34.4368 84.7012 34.1841C84.2172 34.0857 82.8803 33.9829 81.7304 33.9558C79.5632 33.9048 79.389 33.9135 77.8566 34.1478C77.0372 34.2731 76.6031 34.3718 75.2125 34.7491C74.5724 34.9228 73.8728 35.2052 73.0539 35.6203C71.3801 36.4688 70.7366 37.1049 71.1027 37.5488C71.1294 37.5812 71.1469 37.6091 71.1695 37.632C71.3037 37.7682 71.6168 37.7295 75.0896 37.4181C79.8213 36.9937 82.319 37.275 82.9891 38.3077C83.3414 38.8505 83.2578 40.5671 82.7943 42.3098C82.4141 43.7395 81.6321 46.0601 80.8779 47.9979C80.3704 49.3017 80.3192 49.5199 80.4613 49.7755C80.9486 50.652 83.2471 48.4143 84.8398 45.5129C85.4688 44.3669 86.2852 42.2733 86.6627 40.8376C87.2002 38.7936 87.3841 35.9584 87.0245 35.2583Z" fill="white"/>
<path d="M3.08554 36.6685C2.37534 36.2741 1.65591 35.8767 1.48681 35.7854C0.478266 35.2411 -0.205495 36.1602 0.579848 37.0045C1.10743 37.5719 3.56995 39.6231 5.17617 40.8334C7.40049 42.5094 9.70264 44.0115 12.3704 45.5276C12.966 45.8661 16.4326 47.608 17.2896 47.9993C19.2892 48.9127 23.2122 50.3374 25.7751 51.0812C32.0691 52.9076 39.8298 53.8057 46.3237 53.459C49.9761 53.264 52.9631 52.9282 55.2285 52.4577C55.5328 52.3946 56.1139 52.2764 56.5197 52.1951C61.3336 51.2312 66.5241 49.5328 70.7071 47.5526C71.3403 47.2528 71.8799 47.0075 71.906 47.0075C72.0066 47.0075 75.2861 45.1448 76.2687 44.5296C77.9582 43.4718 79.2203 42.5171 79.4051 42.1574C79.6758 41.6304 79.6176 41.2096 79.2188 40.808C78.7315 40.3175 78.0658 40.322 76.859 40.8242C71.2627 43.1529 63.5686 45.3638 58.3805 46.1342C57.9659 46.1959 57.0455 46.337 56.3353 46.4481C52.4784 47.0509 49.1036 47.2674 43.9759 47.241C41.6086 47.2288 39.1736 47.1729 38.5649 47.1169C34.2023 46.7151 33.6724 46.6506 30.5098 46.1362C26.0706 45.4142 21.9715 44.4059 17.351 42.8992C15.3155 42.2355 11.9956 40.9843 10.5257 40.3267C10.2552 40.2057 9.56343 39.8971 8.98851 39.6409C7.57844 39.0128 4.66606 37.5462 3.08554 36.6685Z" fill="white"/>
<path fill-rule="evenodd" clip-rule="evenodd" d="M16.6132 0.95812C21.2553 1.44985 23.6605 3.48834 24.5688 7.70101C24.7166 8.38637 24.7729 9.99181 24.838 15.3766C24.9024 20.7009 24.9568 22.2666 25.0871 22.557C25.1789 22.7613 25.4459 23.3462 25.6805 23.8569C26.1794 24.9431 26.2862 25.4546 26.0907 25.8224C26.0128 25.9688 25.4123 26.45 24.7562 26.8916C23.4616 27.7632 22.872 27.907 22.2864 27.4942C21.9061 27.226 21.052 26.0358 20.6715 25.2436C20.5024 24.8915 20.2986 24.6027 20.2187 24.6017C20.1387 24.6006 19.7513 24.9106 19.3578 25.2907C17.8544 26.7423 16.0078 27.7071 13.9158 28.1338C12.4843 28.4258 10.0027 28.3323 8.86553 27.9434C7.48657 27.472 6.75264 27.0401 5.91872 26.2091C4.41604 24.7118 3.77791 23.0101 3.78332 20.5143C3.78627 19.1622 3.82882 18.8418 4.12053 17.9764C4.67061 16.3446 5.34982 15.3666 6.67848 14.2931C7.87752 13.3244 9.17272 12.7647 11.0537 12.4023C12.7691 12.0719 15.8036 12.2089 18.3349 12.7311C18.7069 12.8079 19.205 12.8775 19.4417 12.8856L19.8721 12.9006L19.8474 11.213C19.7889 7.21089 18.8343 5.78818 15.8155 5.20359C14.6329 4.97456 12.6037 5.03547 11.1602 5.34349C10.0751 5.57499 8.19345 6.16862 7.45128 6.51365C7.18073 6.63943 6.73173 6.78056 6.45343 6.82736C5.84702 6.92924 5.5959 6.73748 5.47317 6.07898C5.3342 5.33371 5.47981 3.73434 5.72023 3.36504C6.18595 2.64948 9.55113 1.40541 11.8785 1.08848C13.903 0.81278 14.9646 0.783562 16.6132 0.95812ZM9.9802 17.3723C10.655 16.6291 11.3914 16.2516 12.6648 15.9961C13.7634 15.7757 15.2904 15.7734 16.9868 15.9894C18.9046 16.2337 19.7167 16.403 19.8416 16.5852C19.979 16.7852 19.8412 19.0477 19.6382 19.9271C19.216 21.755 17.4994 23.3849 15.3557 23.993C13.8974 24.4067 11.9043 24.4076 10.9897 23.9951C9.63119 23.3823 8.93784 22.119 8.9435 20.2667C8.94731 18.9974 9.23569 18.1925 9.9802 17.3723Z" fill="white"/>
</svg>
