<svg width="85" height="56" viewBox="0 0 85 56" fill="none" xmlns="http://www.w3.org/2000/svg">
<path d="M69.381 19.1334C69.2471 19.0584 69.1038 18.9991 68.9448 18.9714C68.3273 18.8603 67.7246 18.8029 67.135 18.7733C64.158 7.95281 54.0729 0.210938 42.7266 0.210938C28.7615 0.210938 17.4004 11.5155 17.4004 25.4118C17.4004 26.168 17.4394 26.9289 17.5157 27.7055C16.6433 27.4861 15.7049 27.3713 14.7107 27.4287C14.7042 27.4287 14.6968 27.4278 14.6903 27.4278C14.6726 27.4278 14.6559 27.4306 14.6382 27.4306C14.6215 27.4315 14.6057 27.4306 14.588 27.4315C14.5843 27.4315 14.5796 27.4334 14.5759 27.4334C6.93393 27.4935 0.735352 33.6942 0.735352 41.3139C0.735352 48.9716 6.99531 55.2028 14.6894 55.2028H30.3546C30.4504 55.2028 30.5425 55.1926 30.6327 55.1751C30.7034 55.1862 30.774 55.1964 30.8475 55.1964C42.2616 55.1964 44.6583 47.3656 44.6583 40.7965V39.4423L48.7432 42.7954C48.7432 42.7954 50.141 40.9376 50.4154 40.5729L44.1738 35.6112C44.1617 35.6019 44.1486 35.5973 44.1366 35.589C44.0938 35.5594 44.0501 35.5344 44.0045 35.5103C43.9673 35.4899 43.9301 35.4687 43.892 35.4529C43.851 35.4344 43.8092 35.4224 43.7664 35.4085C43.7218 35.3937 43.6771 35.3789 43.6315 35.3696C43.5906 35.3604 43.5488 35.3557 43.5069 35.3502C43.4604 35.3446 43.4139 35.3381 43.3674 35.3372C43.3237 35.3363 43.2791 35.34 43.2354 35.3437C43.1907 35.3474 43.1461 35.3493 43.1024 35.3576C43.0577 35.365 43.0131 35.377 42.9694 35.3891C42.9266 35.4011 42.8838 35.4113 42.842 35.4279C42.801 35.4437 42.761 35.4631 42.7211 35.4835C42.6783 35.5048 42.6355 35.526 42.5946 35.552C42.5806 35.5603 42.5657 35.5658 42.5518 35.5742L36.0376 40.4998C36.3073 40.8951 37.6075 42.7954 37.6075 42.7954L41.8673 39.3951V40.7965C41.8673 48.7254 38.3658 52.4195 30.8466 52.4195C30.7508 52.4195 30.6587 52.4297 30.5685 52.4473C30.4978 52.4362 30.4271 52.426 30.3537 52.426H14.6894C8.53356 52.426 3.52541 47.4406 3.52541 41.3139C3.52541 35.1873 8.53356 30.2037 14.6894 30.2037C15.5831 30.2037 16.4908 30.3333 17.3985 30.5694C19.704 31.3478 21.3297 33.0509 21.3669 33.0917C21.7017 33.0917 23.16 31.4626 23.4278 31.2191C23.345 31.1284 22.2532 29.964 20.5057 28.944C20.3057 27.7203 20.1904 26.5531 20.1904 25.4109C20.1904 13.0465 30.3007 2.98687 42.7266 2.98687C52.6081 2.98687 61.4051 9.59022 64.2594 18.8992C60.6602 19.3962 58.124 20.9707 57.978 21.0633C58.244 21.4789 59.4772 23.4051 59.4772 23.4051C59.5098 23.3847 62.098 21.7936 65.5623 21.5575L66.0404 21.5612C74.5231 21.6334 81.4247 28.5534 81.4247 36.9867C81.4247 45.4987 74.4682 52.4241 65.9157 52.4241H54.1817V55.201H65.9148C76.0055 55.201 84.2139 47.0306 84.2139 36.9867C84.2139 28.1655 77.807 20.7615 69.381 19.1334Z" fill="white"/>
</svg>
